HIERARCHY
ROOT Hips
{
    OFFSET 0.000000 0.000000 0.000000
    CHANNELS 6 Xposition Yposition Zposition Zrotation Xrotation Yrotation
    JOINT Spine
    {
        OFFSET -0.000000 7.790525 0.000000
        CHANNELS 3 Zrotation Xrotation Yrotation
        JOINT Spine1
        {
            OFFSET -0.000000 20.430923 0.000000
            CHANNELS 3 Zrotation Xrotation Yrotation
            JOINT Neck
            {
                OFFSET -0.000000 22.331051 0.000000
                CHANNELS 3 Zrotation Xrotation Yrotation
                JOINT Head
                {
                    OFFSET -0.000000 14.725992 1.900128
                    CHANNELS 3 Zrotation Xrotation Yrotation
                    End Site
                    {
                        OFFSET -0.000000 19.001280 0.000000
                    }
                }
            }
            JOINT LeftShoulder
            {
                OFFSET 3.812537 19.294388 -0.177115
                CHANNELS 3 Zrotation Xrotation Yrotation
                JOINT LeftArm
                {
                    OFFSET 9.162892 0.000000 0.000000
                    CHANNELS 3 Zrotation Xrotation Yrotation
                    JOINT LeftForeArm
                    {
                        OFFSET 30.063545 0.000000 0.000000
                        CHANNELS 3 Zrotation Xrotation Yrotation
                        JOINT LeftHand
                        {
                            OFFSET 28.325521 0.000000 0.000000
                            CHANNELS 3 Zrotation Xrotation Yrotation
                            End Site
                            {
                                OFFSET 14.250961 0.000000 0.000000
                            }
                        }
                    }
                }
            }
            JOINT RightShoulder
            {
                OFFSET -3.786349 19.294388 -0.177115
                CHANNELS 3 Zrotation Xrotation Yrotation
                JOINT RightArm
                {
                    OFFSET -9.162892 0.000000 0.000000
                    CHANNELS 3 Zrotation Xrotation Yrotation
                    JOINT RightForeArm
                    {
                        OFFSET -30.063545 0.000000 0.000000
                        CHANNELS 3 Zrotation Xrotation Yrotation
                        JOINT RightHand
                        {
                            OFFSET -28.325521 0.000000 0.000000
                            CHANNELS 3 Zrotation Xrotation Yrotation
                            End Site
                            {
                                OFFSET -14.250961 0.000000 0.000000
                            }
                        }
                    }
                }
            }
        }
    }
    JOINT LeftUpLeg
    {
        OFFSET 9.500640 0.000000 0.000000
        CHANNELS 3 Zrotation Xrotation Yrotation
        JOINT LeftLeg
        {
            OFFSET -0.000000 -41.640518 0.000000
            CHANNELS 3 Zrotation Xrotation Yrotation
            JOINT LeftFoot
            {
                OFFSET -0.000000 -37.182968 0.000000
                CHANNELS 3 Zrotation Xrotation Yrotation
                JOINT LeftToeBase
                {
                    OFFSET -0.000000 -6.175416 14.250961
                    CHANNELS 3 Zrotation Xrotation Yrotation
                    End Site
                    {
                        OFFSET -0.000000 0.000000 3.800256
                    }
                }
            }
        }
    }
    JOINT RightUpLeg
    {
        OFFSET -9.500640 0.000000 0.000000
        CHANNELS 3 Zrotation Xrotation Yrotation
        JOINT RightLeg
        {
            OFFSET -0.000000 -41.640518 0.000000
            CHANNELS 3 Zrotation Xrotation Yrotation
            JOINT RightFoot
            {
                OFFSET -0.000000 -37.182968 0.000000
                CHANNELS 3 Zrotation Xrotation Yrotation
                JOINT RightToeBase
                {
                    OFFSET -0.000000 -6.175416 14.250961
                    CHANNELS 3 Zrotation Xrotation Yrotation
                    End Site
                    {
                        OFFSET -0.000000 0.000000 3.800256
                    }
                }
            }
        }
    }
}
MOTION
Frames:    9
Frame Time:    0.010000
35.324036    93.105942    71.947884    -47.346272    -26.934227    -13.243055    -3.419555    18.696217    1.562052    11.980977    12.122575    -0.952803    12.542171    41.736546    1.233921    23.700443    -25.247063    9.980321    4.339516    3.072463    -14.200718    -20.778820    49.903812    -41.024147    64.948257    -43.860798    -3.658173    -32.727982    -38.647060    -15.598652    3.281231    5.969340    5.225316    22.788380    25.213631    0.923960    2.546077    -42.416763    92.165359    83.975227    -16.951775    33.998989    42.609631    9.307996    3.808696    11.150333    41.414295    -11.506185    -6.854521    -14.491919    15.016765    0.000000    0.000000    0.000000    -63.630539    -45.932549    -34.528950    10.161592    18.562553    -38.306419    3.922479    3.674757    -6.852161    0.000000    0.000000    0.000000    
35.135757    89.395912    76.592705    -0.613759    -0.030391    -2.150522    -2.130316    -9.334368    -1.416588    4.300807    8.415241    -0.733188    0.912003    17.563595    5.780692    -9.066231    -4.948701    7.013146    -1.619937    7.485744    0.838042    -87.567619    55.846375    18.971064    22.863869    -30.870525    -34.214809    -31.731539    -24.774244    0.858032    -0.840186    8.879293    -4.483608    75.629692    79.201355    -8.372173    -27.201365    -30.725380    15.532813    33.464676    -25.171261    8.327717    -1.245450    1.826990    4.021818    -0.887413    6.015373    1.830894    1.386473    -9.176156    15.861647    0.000000    0.000000    0.000000    -4.002543    0.944659    0.814753    2.218664    6.029338    4.064921    -0.586390    -7.175637    -6.754085    0.000000    0.000000    0.000000    
35.134747    89.395363    76.582146    -0.627983    -0.045564    -2.159232    -2.036861    -9.301153    -1.413164    4.114097    8.336287    -0.718275    1.059521    17.702311    5.749979    -9.095545    -5.012099    7.022537    -1.489223    7.578295    0.788029    -87.282593    55.530224    18.732334    22.475328    -30.744354    -34.574368    -31.539839    -24.707796    0.960872    -0.683130    8.844848    -4.361685    76.760628    79.772087    -9.443796    -27.670322    -30.924143    14.804327    33.734203    -25.390507    8.598250    -1.239081    1.839012    4.005564    -0.875589    6.008198    1.868745    1.383344    -9.180413    15.842859    0.000000    0.000000    0.000000    -3.990552    0.944233    0.804262    2.218363    6.053011    4.157864    -0.591143    -7.179161    -6.822836    0.000000    0.000000    0.000000    
35.118675    89.395905    76.579163    -0.611799    -0.049226    -2.148103    -2.028145    -9.393620    -1.400043    4.042898    8.500041    -0.714074    1.094384    17.586828    5.738219    -9.075801    -4.959080    7.021844    -1.412842    7.539701    0.761659    -87.266861    55.563061    18.663074    22.535030    -30.709534    -34.550987    -31.489067    -24.687687    1.078283    -0.812360    8.567030    -4.363235    78.265602    80.311005    -10.741014    -27.796104    -31.055359    14.383417    33.791599    -25.543789    8.818063    -1.235390    1.829751    3.992033    -0.891523    6.084376    1.106876    1.488823    -9.228533    16.613934    0.000000    0.000000    0.000000    -3.992551    0.954089    0.813711    2.223116    6.029806    4.000021    -0.588889    -7.161184    -6.696032    0.000000    0.000000    0.000000    
35.110348    89.396385    76.572792    -0.609997    -0.065446    -2.144261    -2.051472    -9.294152    -1.385529    4.063367    8.330942    -0.704597    1.168802    17.700581    5.750527    -9.237845    -4.964548    7.070539    -1.438833    7.616706    0.706122    -87.194397    55.488468    18.618788    22.453875    -30.667042    -34.608555    -31.336872    -24.669765    1.140866    -0.765312    8.675873    -4.390990    77.393250    79.937271    -9.975680    -27.449320    -30.895258    14.758780    33.480785    -25.418453    8.591445    -1.238088    1.840726    3.989677    -0.879439    6.077587    1.166521    1.458460    -9.222051    16.563038    0.000000    0.000000    0.000000    -3.985999    0.969082    0.790915    2.205048    6.036298    4.027004    -0.920005    -7.057009    -6.602605    0.000000    0.000000    0.000000    
35.102589    89.397263    76.561378    -0.606034    -0.065980    -2.135996    -2.080457    -9.354769    -1.470704    4.178435    8.493516    -0.745770    0.920590    17.530405    5.813900    -9.074069    -4.918487    7.052618    -1.590430    7.490211    0.868091    -87.632904    56.084515    18.975292    23.065783    -31.000282    -34.049591    -31.592316    -24.895464    0.898687    -1.036021    8.631455    -4.367206    76.875374    79.797913    -9.290973    -27.295313    -30.794020    14.947300    33.398678    -25.321848    8.493163    -1.237644    1.840038    3.980758    -0.880156    6.008807    1.917590    1.347070    -9.150821    15.799770    0.000000    0.000000    0.000000    -3.984192    0.959196    0.782368    2.208541    6.049197    4.033120    1.078446    -6.845279    -6.895750    0.000000    0.000000    0.000000    
35.093887    89.400803    76.557556    -0.599412    -0.083471    -2.130881    -2.237499    -9.481645    -1.313688    4.430369    8.714536    -0.715958    0.909455    17.079765    6.042134    -9.053735    -4.311787    7.327086    -1.642727    7.471523    0.474645    -87.153831    55.567703    18.566021    22.610115    -30.736559    -34.459797    -31.361305    -24.712986    1.085619    -1.006950    8.516560    -4.555261    77.955940    80.399490    -10.380571    -27.811050    -31.016674    14.306411    33.837429    -25.497173    8.883310    -1.238460    1.841138    3.963603    -0.884216    6.084789    1.155090    1.465731    -9.174575    16.603899    0.000000    0.000000    0.000000    -3.984397    0.980479    0.780535    2.205114    6.030127    4.010627    -0.577936    -7.164491    -6.682454    0.000000    0.000000    0.000000    
35.096539    89.401421    76.542648    -0.606746    -0.081880    -2.139281    -2.261942    -9.475679    -1.340991    4.534997    8.762931    -0.734757    1.825922    17.283211    5.388136    -10.631074    -4.616150    7.031566    -1.773539    7.387992    0.553714    -87.188354    55.710087    18.657639    22.695322    -30.811522    -34.376694    -31.438713    -24.758989    0.985766    -1.083290    8.467098    -4.620596    76.674370    79.950981    -9.219671    -27.211433    -30.834358    14.962226    33.474606    -25.339918    8.588208    -1.241915    1.823497    3.951320    -1.015269    6.055279    2.388965    1.565750    -9.170758    15.679328    0.000000    0.000000    0.000000    -4.116578    0.951151    1.022832    2.608146    6.090810    3.720424    -1.167943    -7.056413    -6.723392    0.000000    0.000000    0.000000    
35.085182    89.405472    76.535103    -0.613675    -0.053126    -2.112280    -2.282158    -9.552608    -1.371061    4.536321    8.760542    -0.743506    1.001788    17.581707    5.600688    -9.326015    -5.008533    6.870966    -1.725156    7.476169    0.452608    -86.986671    55.432201    18.456184    22.527382    -30.685072    -34.582615    -31.426485    -24.646845    1.038227    -1.045535    8.338068    -4.328347    78.064590    79.677376    -10.704486    -27.249626    -30.789457    14.998864    33.741837    -25.236673    8.672264    -1.229995    1.747678    3.920216    -0.486384    6.368624    0.288321    0.769214    -9.462161    16.733936    0.000000    0.000000    0.000000    -4.106906    0.922102    1.034895    2.624753    6.092546    3.726021    -0.893055    -7.175183    -6.849411    0.000000    0.000000    0.000000    
